<svg width="578" height="210" viewBox="0 0 578 210" fill="none" xmlns="http://www.w3.org/2000/svg">
<path d="M333.096 209.472C376.98 209.472 412.556 173.896 412.556 130.011C412.556 86.1261 376.98 50.5503 333.096 50.5503C289.211 50.5503 253.635 86.1261 253.635 130.011C253.635 173.896 289.211 209.472 333.096 209.472Z" fill="#C98474"/>
<path d="M311.218 145.098C315.648 145.098 319.24 141.507 319.24 137.077C319.24 132.647 315.648 129.056 311.218 129.056C306.788 129.056 303.197 132.647 303.197 137.077C303.197 141.507 306.788 145.098 311.218 145.098Z" fill="#333333"/>
<path d="M348.973 145.098C353.403 145.098 356.994 141.507 356.994 137.077C356.994 132.647 353.403 129.056 348.973 129.056C344.543 129.056 340.952 132.647 340.952 137.077C340.952 141.507 344.543 145.098 348.973 145.098Z" fill="#333333"/>
<path d="M156.807 150.301V75.2529C156.807 43.8729 182.246 18.4331 213.626 18.4331C245.006 18.4331 270.446 43.8729 270.446 75.2529V150.308C270.446 181.688 245.006 207.128 213.626 207.128C182.246 207.128 156.807 181.688 156.807 150.301Z" fill="#F2D388"/>
<path d="M194.746 77.077C199.176 77.077 202.767 73.4858 202.767 69.0558C202.767 64.6259 199.176 61.0347 194.746 61.0347C190.316 61.0347 186.725 64.6259 186.725 69.0558C186.725 73.4858 190.316 77.077 194.746 77.077Z" fill="#333333"/>
<path d="M232.506 77.077C236.936 77.077 240.528 73.4858 240.528 69.0558C240.528 64.6259 236.936 61.0347 232.506 61.0347C228.077 61.0347 224.485 64.6259 224.485 69.0558C224.485 73.4858 228.077 77.077 232.506 77.077Z" fill="#333333"/>
<path d="M150.15 200.739H34.5344C15.4628 200.739 0 185.276 0 166.205V127.205C0 108.134 15.4628 92.6709 34.5344 92.6709H150.15C169.221 92.6709 184.684 108.134 184.684 127.205V166.205C184.684 185.283 169.221 200.739 150.15 200.739Z" fill="#A7D2CB"/>
<path d="M96.8463 139.231C101.276 139.231 104.867 135.64 104.867 131.21C104.867 126.78 101.276 123.188 96.8463 123.188C92.4164 123.188 88.8252 126.78 88.8252 131.21C88.8252 135.64 92.4164 139.231 96.8463 139.231Z" fill="#333333"/>
<path d="M134.601 139.231C139.031 139.231 142.622 135.64 142.622 131.21C142.622 126.78 139.031 123.188 134.601 123.188C130.171 123.188 126.58 126.78 126.58 131.21C126.58 135.64 130.171 139.231 134.601 139.231Z" fill="#333333"/>
<path d="M505.432 0H429.541C417.173 0 405.741 6.59869 399.557 17.3133L361.611 83.0367C355.428 93.7513 355.428 106.949 361.611 117.657L399.557 183.38C405.741 194.095 417.173 200.693 429.541 200.693H505.432C517.8 200.693 529.232 194.095 535.416 183.38L573.362 117.657C579.546 106.942 579.546 93.7447 573.362 83.0367L535.416 17.3133C529.226 6.59869 517.8 0 505.432 0Z" fill="#874C62"/>
<path d="M429.633 92.994C434.063 92.994 437.655 89.4028 437.655 84.9728C437.655 80.5428 434.063 76.9517 429.633 76.9517C425.204 76.9517 421.612 80.5428 421.612 84.9728C421.612 89.4028 425.204 92.994 429.633 92.994Z" fill="#333333"/>
<path d="M467.388 92.994C471.818 92.994 475.409 89.4028 475.409 84.9728C475.409 80.5428 471.818 76.9517 467.388 76.9517C462.958 76.9517 459.367 80.5428 459.367 84.9728C459.367 89.4028 462.958 92.994 467.388 92.994Z" fill="#333333"/>
</svg>
