<svg xmlns="http://www.w3.org/2000/svg" viewBox="0 0 289.28 264.61"><defs><style>.cls-1{fill:#874c62;}.cls-2{fill:#333;}</style></defs><g id="Layer_2" data-name="Layer 2"><g id="Layer_14" data-name="Layer 14"><path class="cls-1" d="M98.61,0h92.07A52.55,52.55,0,0,1,236.2,26.29l46,79.73a52.57,52.57,0,0,1,0,52.57l-46,79.74a52.57,52.57,0,0,1-45.52,26.28H98.61a52.57,52.57,0,0,1-45.53-26.28L7,158.59A52.57,52.57,0,0,1,7,106l46-79.73A52.56,52.56,0,0,1,98.61,0Z"/><circle class="cls-2" cx="194.55" cy="112.03" r="10.57"/><circle class="cls-2" cx="144.76" cy="112.03" r="10.57"/></g></g></svg>