<svg width="470" height="200" viewBox="0 0 470 200" fill="none" xmlns="http://www.w3.org/2000/svg">
<path d="M0 136.928V59C0 26.416 26.416 0 59 0C91.5841 0 118 26.416 118 59V136.935C118 169.519 91.5841 195.935 59 195.935C26.416 195.935 0 169.519 0 136.928Z" fill="#F2D388"/>
<path d="M39.3953 60.8942C43.9953 60.8942 47.7243 57.1652 47.7243 52.5653C47.7243 47.9653 43.9953 44.2363 39.3953 44.2363C34.7954 44.2363 31.0664 47.9653 31.0664 52.5653C31.0664 57.1652 34.7954 60.8942 39.3953 60.8942Z" fill="#333333"/>
<path d="M78.6043 60.8942C83.2043 60.8942 86.9332 57.1652 86.9332 52.5653C86.9332 47.9653 83.2043 44.2363 78.6043 44.2363C74.0044 44.2363 70.2754 47.9653 70.2754 52.5653C70.2754 57.1652 74.0044 60.8942 78.6043 60.8942Z" fill="#333333"/>
<path d="M352 140.928V63C352 30.416 378.416 4 411 4C443.584 4 470 30.416 470 63V140.935C470 173.519 443.584 199.935 411 199.935C378.416 199.935 352 173.519 352 140.928Z" fill="#F2D388"/>
<path d="M391.395 64.8942C395.995 64.8942 399.724 61.1652 399.724 56.5653C399.724 51.9653 395.995 48.2363 391.395 48.2363C386.795 48.2363 383.066 51.9653 383.066 56.5653C383.066 61.1652 386.795 64.8942 391.395 64.8942Z" fill="#333333"/>
<path d="M430.604 64.8942C435.204 64.8942 438.933 61.1652 438.933 56.5653C438.933 51.9653 435.204 48.2363 430.604 48.2363C426.004 48.2363 422.275 51.9653 422.275 56.5653C422.275 61.1652 426.004 64.8942 430.604 64.8942Z" fill="#333333"/>
<path d="M169 136.928V59C169 26.416 195.416 0 228 0C260.584 0 287 26.416 287 59V136.935C287 169.519 260.584 195.935 228 195.935C195.416 195.935 169 169.519 169 136.928Z" fill="#F2D388"/>
<path d="M208.395 60.8942C212.995 60.8942 216.724 57.1652 216.724 52.5653C216.724 47.9653 212.995 44.2363 208.395 44.2363C203.795 44.2363 200.066 47.9653 200.066 52.5653C200.066 57.1652 203.795 60.8942 208.395 60.8942Z" fill="#333333"/>
<path d="M247.604 60.8942C252.204 60.8942 255.933 57.1652 255.933 52.5653C255.933 47.9653 252.204 44.2363 247.604 44.2363C243.004 44.2363 239.275 47.9653 239.275 52.5653C239.275 57.1652 243.004 60.8942 247.604 60.8942Z" fill="#333333"/>
<path d="M189.512 147.017H97.4878C82.3077 147.017 70 134.71 70 119.53V88.4878C70 73.3077 82.3077 61 97.4878 61H189.512C204.692 61 217 73.3077 217 88.4878V119.53C217 134.715 204.692 147.017 189.512 147.017Z" fill="#A7D2CB"/>
<path d="M147.085 98.058C150.611 98.058 153.469 95.1996 153.469 91.6735C153.469 88.1475 150.611 85.2891 147.085 85.2891C143.559 85.2891 140.7 88.1475 140.7 91.6735C140.7 95.1996 143.559 98.058 147.085 98.058Z" fill="#333333"/>
<path d="M177.135 98.058C180.661 98.058 183.52 95.1996 183.52 91.6735C183.52 88.1475 180.661 85.2891 177.135 85.2891C173.609 85.2891 170.751 88.1475 170.751 91.6735C170.751 95.1996 173.609 98.058 177.135 98.058Z" fill="#333333"/>
</svg>
